<svg width="61" height="64" viewBox="0 0 61 64" fill="none" xmlns="http://www.w3.org/2000/svg">
<path fill-rule="evenodd" clip-rule="evenodd" d="M40.491 0V7.82489H20.309V0H8.05789V7.82489H0V64H60.8V7.82489H52.7413V0H40.491ZM4.28333 59.8145H56.5103V20.0808H4.28333V59.8145Z" fill="#81B33B"/>
<path fill-rule="evenodd" clip-rule="evenodd" d="M20.2363 32.0005H28.3763V23.9424H20.2363V32.0005Z" fill="#81B33B"/>
<path fill-rule="evenodd" clip-rule="evenodd" d="M32.3574 32.0005H40.4974V23.9424H32.3574V32.0005Z" fill="#81B33B"/>
<path fill-rule="evenodd" clip-rule="evenodd" d="M44.5449 32.0005H52.6849V23.9424H44.5449V32.0005Z" fill="#81B33B"/>
<path fill-rule="evenodd" clip-rule="evenodd" d="M20.2363 43.9365H28.3763V35.8784H20.2363V43.9365Z" fill="#81B33B"/>
<path fill-rule="evenodd" clip-rule="evenodd" d="M8.11328 43.9365H16.2533V35.8784H8.11328V43.9365Z" fill="#81B33B"/>
<path fill-rule="evenodd" clip-rule="evenodd" d="M32.3574 43.9365H40.4974V35.8784H32.3574V43.9365Z" fill="#81B33B"/>
<path fill-rule="evenodd" clip-rule="evenodd" d="M20.2363 55.8726H28.3763V47.8145H20.2363V55.8726Z" fill="#81B33B"/>
<path fill-rule="evenodd" clip-rule="evenodd" d="M8.11328 55.8726H16.2533V47.8145H8.11328V55.8726Z" fill="#81B33B"/>
<path fill-rule="evenodd" clip-rule="evenodd" d="M32.3574 55.8726H40.4974V47.8145H32.3574V55.8726Z" fill="#81B33B"/>
<path fill-rule="evenodd" clip-rule="evenodd" d="M44.5449 43.9365H52.6849V35.8784H44.5449V43.9365Z" fill="#81B33B"/>
</svg>
