<svg width="61" height="64" viewBox="0 0 61 64" fill="none" xmlns="http://www.w3.org/2000/svg">
<path fill-rule="evenodd" clip-rule="evenodd" d="M4.28333 29.135H56.5099V4.18677H4.28333V29.135ZM47.6544 50.1333C44.5642 50.1333 42.0583 47.6535 42.0583 44.5935C42.0583 41.5343 44.5642 39.0544 47.6544 39.0544C50.7447 39.0544 53.2505 41.5343 53.2505 44.5935C53.2505 47.6535 50.7447 50.1333 47.6544 50.1333ZM13.4865 50.1333C10.3955 50.1333 7.88959 47.6535 7.88959 44.5935C7.88959 41.5343 10.3955 39.0544 13.4865 39.0544C16.5767 39.0544 19.0818 41.5343 19.0818 44.5935C19.0818 47.6535 16.5767 50.1333 13.4865 50.1333ZM0 0V56.175H5.39522V64H17.6457V56.175H43.3436V64H55.5949V56.175H60.8V0H0Z" fill="#81B33B"/>
</svg>
