<svg width="68" height="64" viewBox="0 0 68 64" fill="none" xmlns="http://www.w3.org/2000/svg">
<path fill-rule="evenodd" clip-rule="evenodd" d="M40.7617 0V11.2494H51.9802L40.7617 0Z" fill="#81B33B"/>
<mask id="mask0" mask-type="alpha" maskUnits="userSpaceOnUse" x="0" y="0" width="68" height="65">
<path fill-rule="evenodd" clip-rule="evenodd" d="M0 0.000488281H67.2V64.0002H0V0.000488281Z" fill="white"/>
</mask>
<g mask="url(#mask0)">
<path fill-rule="evenodd" clip-rule="evenodd" d="M29.4125 55.7485H43.2009V52.438H29.4125V55.7485ZM7.09167 41.0933H29.8135V37.7827H7.09167V41.0933ZM7.09167 34.1116H29.8135V30.801H7.09167V34.1116ZM7.09167 27.1304H29.8135V23.8198H7.09167V27.1304ZM7.09167 8.93531H29.8135V5.62476H7.09167V8.93531ZM47.0868 48.1896L41.1619 50.1798L40.2587 50.2295C38.7667 50.2295 37.3544 49.4987 36.4775 48.2756C35.6076 47.058 35.3705 45.4795 35.8436 44.0531L37.6237 38.6918C37.9807 37.6024 38.6028 36.5881 39.4146 35.7659L52.032 23.1219V14.9997H38.9377C37.9415 14.9997 37.1345 14.1872 37.1345 13.186V0H0V63.9997H52.032V44.3803L49.9847 46.391C49.1545 47.2192 48.1825 47.8213 47.0868 48.1896Z" fill="#81B33B"/>
<path fill-rule="evenodd" clip-rule="evenodd" d="M40.5586 46.4302L45.42 44.7966L41.0005 40.3506L39.3796 45.245C39.1365 45.9774 39.8301 46.6747 40.5586 46.4302Z" fill="#81B33B"/>
<path fill-rule="evenodd" clip-rule="evenodd" d="M43.1992 37.2621L48.4923 42.5877C51.266 39.7965 56.6639 34.3649 60.7651 30.2386L55.4725 24.9136L43.1992 37.2621Z" fill="#81B33B"/>
<path fill-rule="evenodd" clip-rule="evenodd" d="M66.1043 19.5356C65.4489 18.8724 64.4844 18.4932 63.4618 18.4932C62.4392 18.4932 61.4747 18.8724 60.8155 19.5372L58.1074 22.2619L63.4 27.5869L66.1081 24.8622C67.564 23.3952 67.564 21.0058 66.1043 19.5356Z" fill="#81B33B"/>
</g>
</svg>
