<svg width="17" height="17" viewBox="0 0 17 17" fill="none" xmlns="http://www.w3.org/2000/svg">
<path fill-rule="evenodd" clip-rule="evenodd" d="M5.94726 9.28862C5.94726 9.07797 5.77652 8.90723 5.56513 8.90723H4.231C4.02035 8.90723 3.84961 9.07797 3.84961 9.28862V10.6227C3.84961 10.8334 4.02035 11.0041 4.231 11.0041H5.56513C5.77652 11.0041 5.94726 10.8334 5.94726 10.6227V9.28862Z" fill="#81B33B"/>
<path fill-rule="evenodd" clip-rule="evenodd" d="M9.28125 9.28862C9.28125 9.07797 9.11051 8.90723 8.89912 8.90723H7.56572C7.35507 8.90723 7.18359 9.07797 7.18359 9.28862V10.6227C7.18359 10.8334 7.35507 11.0041 7.56572 11.0041H8.89912C9.11051 11.0041 9.28125 10.8334 9.28125 10.6227V9.28862Z" fill="#81B33B"/>
<path fill-rule="evenodd" clip-rule="evenodd" d="M12.614 9.28862C12.614 9.07797 12.4433 8.90723 12.2319 8.90723H10.8985C10.6871 8.90723 10.5156 9.07797 10.5156 9.28862V10.6227C10.5156 10.8334 10.6871 11.0041 10.8985 11.0041H12.2319C12.4433 11.0041 12.614 10.8334 12.614 10.6227V9.28862Z" fill="#81B33B"/>
<path fill-rule="evenodd" clip-rule="evenodd" d="M5.94726 12.6224C5.94726 12.4117 5.77652 12.2402 5.56513 12.2402H4.231C4.02035 12.2402 3.84961 12.4117 3.84961 12.6224V13.9558C3.84961 14.1671 4.02035 14.3379 4.231 14.3379H5.56513C5.77652 14.3379 5.94726 14.1671 5.94726 13.9558V12.6224Z" fill="#81B33B"/>
<path fill-rule="evenodd" clip-rule="evenodd" d="M9.28125 12.6224C9.28125 12.4117 9.11051 12.2402 8.89912 12.2402H7.56572C7.35507 12.2402 7.18359 12.4117 7.18359 12.6224V13.9558C7.18359 14.1671 7.35507 14.3379 7.56572 14.3379H8.89912C9.11051 14.3379 9.28125 14.1671 9.28125 13.9558V12.6224Z" fill="#81B33B"/>
<path fill-rule="evenodd" clip-rule="evenodd" d="M12.614 12.6224C12.614 12.4117 12.4433 12.2402 12.2319 12.2402H10.8985C10.6871 12.2402 10.5156 12.4117 10.5156 12.6224V13.9558C10.5156 14.1671 10.6871 14.3379 10.8985 14.3379H12.2319C12.4433 14.3379 12.614 14.1671 12.614 13.9558V12.6224Z" fill="#81B33B"/>
<mask id="mask0" mask-type="alpha" maskUnits="userSpaceOnUse" x="0" y="1" width="17" height="16">
<path fill-rule="evenodd" clip-rule="evenodd" d="M0 1.86719H16.4648V16.8372H0V1.86719Z" fill="white"/>
</mask>
<g mask="url(#mask0)">
<path fill-rule="evenodd" clip-rule="evenodd" d="M14.5106 14.5758C14.5106 14.9358 14.2179 15.2284 13.858 15.2284H2.57735C2.21739 15.2284 1.92543 14.9358 1.92543 14.5758V8.40997C1.92543 8.04927 2.21739 7.75732 2.57735 7.75732H13.858C14.2179 7.75732 14.5106 8.04927 14.5106 8.40997V14.5758ZM14.9992 1.87384V3.91088C14.9992 4.83184 14.2519 5.57319 13.3317 5.57319H12.2799C11.359 5.57319 10.6028 4.83184 10.6028 3.91088V1.86719H5.86204V3.91088C5.86204 4.83184 5.10517 5.57319 4.18496 5.57319H3.13243C2.21222 5.57319 1.4657 4.83184 1.4657 3.91088V1.87384C0.660783 1.89823 0 2.56419 0 3.3824V15.3194C0 16.1531 0.675565 16.8375 1.5093 16.8375H14.9556C15.7878 16.8375 16.4649 16.1516 16.4649 15.3194V3.3824C16.4649 2.56419 15.8033 1.89823 14.9992 1.87384Z" fill="#81B33B"/>
</g>
<path fill-rule="evenodd" clip-rule="evenodd" d="M3.12873 4.48209H4.16868C4.48429 4.48209 4.74077 4.22635 4.74077 3.91074V0.571348C4.74077 0.255739 4.48429 0 4.16868 0H3.12873C2.81312 0 2.55664 0.255739 2.55664 0.571348V3.91074C2.55664 4.22635 2.81312 4.48209 3.12873 4.48209Z" fill="#81B33B"/>
<path fill-rule="evenodd" clip-rule="evenodd" d="M12.2667 4.48209H13.3066C13.623 4.48209 13.8787 4.22635 13.8787 3.91074V0.571348C13.8787 0.255739 13.623 0 13.3066 0H12.2667C11.9511 0 11.6953 0.255739 11.6953 0.571348V3.91074C11.6953 4.22635 11.9511 4.48209 12.2667 4.48209Z" fill="#81B33B"/>
</svg>
